<svg xmlns="http://www.w3.org/2000/svg" xmlns:xlink="http://www.w3.org/1999/xlink" width="198.21" height="60.305" viewBox="0 0 198.21 60.305"><defs><clipPath id="clip-path"><rect id="Rectangle_2" data-name="Rectangle 2" width="198.21" height="60.305" fill="#fff"></rect></clipPath></defs><g id="Group_2" data-name="Group 2" transform="translate(-17 205)"><g id="Group_1" data-name="Group 1" transform="translate(17 -205)" clip-path="url(#clip-path)"><path id="Path_1" data-name="Path 1" d="M29.865,0a29.282,29.282,0,0,0-10.9,2.034,30.843,30.843,0,0,0-9.1,5.543,30.311,30.311,0,0,0-6.6,8.323A29.029,29.029,0,0,0,0,25.845H9.4a19.241,19.241,0,0,1,2.415-6.313,21.726,21.726,0,0,1,4.611-5.43A21.489,21.489,0,0,1,22.6,10.471a20.052,20.052,0,0,1,7.27-1.329,20.756,20.756,0,0,1,6.127.9,18.48,18.48,0,0,1,5.43,2.691L46.576,5A29.464,29.464,0,0,0,29.865,0M41.422,47.573a18.284,18.284,0,0,1-5.43,2.691,20.756,20.756,0,0,1-6.127.9,19.882,19.882,0,0,1-7.27-1.329,21.436,21.436,0,0,1-10.779-9.061A19.241,19.241,0,0,1,9.4,34.46H0a29.072,29.072,0,0,0,3.266,9.952,30.4,30.4,0,0,0,6.6,8.315,30.843,30.843,0,0,0,9.1,5.543,29.282,29.282,0,0,0,10.9,2.034,29.464,29.464,0,0,0,16.711-5Z" transform="translate(0 0)" fill="#fff"></path><path id="Path_2" data-name="Path 2" d="M91.061.007h-4.8l-26.027,60.3h9.451l9.729-22.533L88.63,16.535,101.768,47.36l5.623,12.946h9.618Z" transform="translate(-11.418 -0.001)" fill="#fff"></path><path id="Path_3" data-name="Path 3" d="M160.649.009l-9.733,22.53-1.434,3.307h9.466L170.1.009ZM141.709,43.781,128.572,12.952,122.948.009h-9.621l25.951,60.3h4.8l11.151-25.845h-9.482Z" transform="translate(-21.482 -0.002)" fill="#fff"></path><line id="Line_1" data-name="Line 1" x1="9.466" transform="translate(127.999 25.844)" fill="#ab131c"></line><line id="Line_2" data-name="Line 2" x1="9.482" transform="translate(124.263 34.459)" fill="#ab131c"></line><path id="Path_4" data-name="Path 4" d="M217.25,0H191.339V8.615h17.229V60.3l8.615,0Z" transform="translate(-36.27 0)" fill="#fff"></path><rect id="Rectangle_1" data-name="Rectangle 1" width="8.615" height="8.615" transform="translate(189.595 0)" fill="#fff"></rect></g></g></svg>